<svg xmlns="http://www.w3.org/2000/svg" width="24" height="24" viewBox="0 0 24 24">
  <title>align_horizontal</title>
  <polyline points="19 13 19 15 13 15 13 8 19 8 19 10 17 10 17 13 19 13" style="fill: #ccc"/>
  <path d="M19,11v1H18V11h1m1-1H17v3h3V10Z" style="fill: #ccc"/>
  <polyline points="10 13 10 15 4 15 4 8 10 8 10 10 8 10 8 13 10 13" style="fill: #ccc"/>
  <path d="M10,11v1H9V11h1m1-1H8v3h3V10Z" style="fill: #ccc"/>
  <rect x="5" y="8" width="1" height="7" transform="translate(17 6) rotate(90)" style="fill: #ccc"/>
  <rect x="13" y="8" width="1" height="7" transform="translate(25 -2) rotate(90)" style="fill: #ccc"/>
  <rect x="20" y="10" width="1" height="3" transform="translate(32 -9) rotate(90)" style="fill: #ccc"/>
</svg>
