<svg xmlns="http://www.w3.org/2000/svg" width="24" height="24" viewBox="0 0 24 24">
  <title>align_snap</title>
  <g>
    <rect x="7" y="4" width="1" height="16" style="fill: #ccc"/>
    <rect x="16" y="4" width="1" height="5" style="fill: #ccc"/>
    <rect x="4.5" y="6.5" width="1" height="2" transform="translate(12.5 2.5) rotate(90)" style="fill: #ccc"/>
    <rect x="11.5" y="4.5" width="1" height="6" transform="translate(19.5 -4.5) rotate(90)" style="fill: #ccc"/>
    <rect x="18.5" y="6.5" width="1" height="2" transform="translate(26.5 -11.5) rotate(90)" style="fill: #ccc"/>
    <rect x="4.5" y="15.5" width="1" height="2" transform="translate(21.5 11.5) rotate(90)" style="fill: #ccc"/>
  </g>
  <path d="M13,16a2,2,0,0,1,4,0v2h3V16a5,5,0,0,0-10,0v2h3Z" style="fill: #ccc"/>
  <polyline points="10.5 18 10.5 20.5 12.5 20.5 12.5 18" style="fill: none;stroke: #ccc;stroke-miterlimit: 10"/>
  <polyline points="17.5 18 17.5 20.5 19.5 20.5 19.5 18" style="fill: none;stroke: #ccc;stroke-miterlimit: 10"/>
</svg>
